<svg width="15" height="15" viewBox="0 0 15 15" fill="none" xmlns="http://www.w3.org/2000/svg">
<path d="M7.5 13.3452C7.28645 13.3452 7.08057 13.2678 6.92013 13.1273C6.31416 12.5974 5.72994 12.0995 5.2145 11.6603L5.21187 11.658C3.70068 10.3702 2.39571 9.25804 1.48773 8.1625C0.472755 6.93775 0 5.77652 0 4.50794C0 3.27541 0.42263 2.13833 1.18996 1.306C1.96644 0.463829 3.03188 0 4.19037 0C5.05623 0 5.84919 0.273743 6.54716 0.81356C6.89941 1.08604 7.2187 1.41953 7.5 1.80851C7.78141 1.41953 8.10059 1.08604 8.45295 0.81356C9.15092 0.273743 9.94389 0 10.8097 0C11.9681 0 13.0337 0.463829 13.8102 1.306C14.5775 2.13833 15 3.27541 15 4.50794C15 5.77652 14.5274 6.93775 13.5124 8.16238C12.6044 9.25804 11.2996 10.3701 9.78859 11.6578C9.27223 12.0977 8.6871 12.5964 8.07976 13.1275C7.91943 13.2678 7.71343 13.3452 7.5 13.3452Z" fill="#46A358"/>
</svg>
