<svg width="14" height="14" viewBox="0 0 14 14" fill="none" xmlns="http://www.w3.org/2000/svg">
<path d="M10.453 8.3534C10.3019 8.49982 10.2325 8.71157 10.2669 8.91924L10.7855 11.7892C10.8293 12.0325 10.7266 12.2787 10.523 12.4192C10.3235 12.5651 10.0581 12.5826 9.8405 12.4659L7.25692 11.1184C7.16709 11.0706 7.06734 11.0449 6.96525 11.042H6.80717C6.75234 11.0502 6.69867 11.0677 6.64967 11.0945L4.0655 12.4484C3.93775 12.5126 3.79309 12.5353 3.65134 12.5126C3.306 12.4472 3.07559 12.1182 3.13217 11.7712L3.65134 8.90115C3.68575 8.69174 3.61634 8.47882 3.46525 8.33007L1.35884 6.2884C1.18267 6.11749 1.12142 5.86082 1.20192 5.62924C1.28009 5.39824 1.47959 5.22965 1.7205 5.19174L4.61967 4.77115C4.84017 4.7484 5.03384 4.61424 5.133 4.4159L6.4105 1.79674C6.44084 1.7384 6.47992 1.68474 6.52717 1.63924L6.57967 1.5984C6.60709 1.56807 6.63859 1.54299 6.67359 1.52257L6.73717 1.49924L6.83634 1.4584H7.08192C7.30125 1.48115 7.49434 1.6124 7.59525 1.8084L8.88967 4.4159C8.983 4.60665 9.16442 4.73907 9.37384 4.77115L12.273 5.19174C12.518 5.22674 12.7228 5.3959 12.8038 5.62924C12.8803 5.86315 12.8143 6.11982 12.6347 6.2884L10.453 8.3534Z" fill="#FFAC0C"/>
</svg>
